<?xml version="1.0" standalone="no"?>
<!DOCTYPE svg PUBLIC "-//W3C//DTD SVG 20010904//EN"
 "http://www.w3.org/TR/2001/REC-SVG-20010904/DTD/svg10.dtd">
<svg version="1.0" xmlns="http://www.w3.org/2000/svg"
 width="128.000000pt" height="128.000000pt" viewBox="0 0 128.000000 128.000000"
 preserveAspectRatio="xMidYMid meet">

<g transform="translate(0.000000,128.000000) scale(0.100000,-0.100000)"
fill="#000000" stroke="none">
<path d="M485 1265 c-70 -18 -188 -80 -252 -132 -92 -76 -180 -217 -208 -335
-19 -81 -19 -226 1 -308 41 -175 172 -340 334 -419 109 -53 218 -75 327 -68
254 18 478 185 565 423 27 72 37 278 18 368 -39 191 -214 383 -410 453 -94 33
-278 42 -375 18z m342 -30 c186 -58 333 -195 397 -368 35 -94 40 -121 22 -114
-10 4 -13 1 -9 -9 3 -7 9 -14 13 -14 4 0 8 -12 8 -26 0 -18 -5 -24 -15 -20 -8
3 -12 2 -9 -3 3 -5 0 -24 -8 -42 -9 -22 -11 -41 -5 -56 6 -16 5 -23 -4 -23 -6
-1 2 -7 18 -14 l30 -14 -25 -10 c-18 -8 -20 -11 -7 -11 24 -1 21 -20 -5 -31
-18 -7 -19 -9 -5 -9 9 -1 17 -6 17 -12 0 -7 -9 -9 -24 -5 -19 5 -24 2 -21 -12
4 -28 -6 -34 -26 -16 -10 9 -19 28 -19 42 0 18 -3 22 -12 14 -21 -16 -105 -25
-113 -12 -5 8 -22 10 -50 6 -43 -7 -69 0 -120 34 -16 11 -37 23 -45 27 -8 4
-24 15 -34 25 -14 12 -24 15 -37 8 -23 -13 -29 -12 -29 0 0 6 3 9 8 8 4 -2 7
2 7 7 0 6 -4 9 -8 7 -5 -1 -6 2 -2 8 3 5 0 13 -9 16 -8 3 -18 19 -21 35 -5 24
-11 29 -26 24 -14 -5 -19 -2 -18 12 0 10 3 13 6 5 2 -6 10 -9 16 -5 7 4 23 8
37 8 25 0 27 5 14 39 -4 12 -4 17 2 13 5 -3 10 3 10 14 0 10 -7 19 -16 20 -10
0 -11 2 -3 6 10 3 10 10 2 25 -8 15 -13 17 -19 8 -5 -7 -9 2 -12 24 -2 20 0
36 4 36 4 0 9 -10 9 -22 2 -32 18 49 18 93 1 36 2 37 45 43 48 7 80 34 70 59
-9 25 -31 27 -60 5 -24 -19 -30 -20 -58 -9 -17 7 -42 15 -56 17 -14 2 -17 1
-7 -2 13 -4 17 -12 14 -26 -5 -17 -2 -18 23 -13 16 3 31 2 35 -4 3 -6 -2 -11
-12 -11 -10 0 -29 -7 -42 -16 -17 -12 -25 -14 -34 -5 -9 9 -9 14 2 20 9 6 6 9
-11 9 -21 0 -24 -4 -20 -29 3 -20 -1 -31 -12 -35 -25 -9 -19 -24 10 -24 14 0
22 4 19 10 -3 6 1 7 9 4 9 -3 16 -2 16 4 0 6 8 9 18 8 9 -2 22 4 29 13 10 13
11 14 10 1 -2 -8 -6 -21 -10 -27 -5 -8 -4 -13 2 -13 6 0 11 -4 11 -10 0 -5
-12 -10 -26 -10 -24 0 -25 -2 -18 -32 10 -46 10 -53 1 -55 -4 -2 -18 -14 -32
-29 -18 -20 -29 -24 -47 -18 -22 7 -22 7 -3 15 19 7 19 8 -2 8 -12 1 -28 10
-36 21 -8 11 -17 17 -20 13 -4 -3 -7 1 -7 10 0 9 5 19 10 22 6 3 10 1 10 -5 0
-7 9 -5 22 4 12 9 35 16 50 16 40 0 35 24 -7 37 -29 9 -38 8 -59 -8 -26 -20
-51 -26 -41 -9 3 6 2 10 -4 10 -5 0 -13 -10 -16 -22 -4 -13 -17 -31 -29 -41
-11 -9 -14 -15 -6 -12 11 4 23 -9 40 -42 14 -26 33 -56 43 -67 10 -11 15 -26
13 -33 -3 -7 -1 -15 3 -18 5 -3 7 -13 4 -24 -4 -15 0 -18 21 -14 30 6 32 1 11
-21 -14 -13 -12 -15 12 -13 16 1 28 -3 29 -10 1 -7 3 -16 4 -20 1 -5 2 -11 1
-15 0 -5 4 -8 10 -8 5 0 8 -3 6 -7 -3 -5 21 -7 53 -6 33 2 62 -2 65 -7 4 -7
-10 -9 -39 -6 -24 2 -48 1 -51 -3 -8 -7 -13 -8 -65 -10 -22 0 -40 -4 -40 -8 0
-5 33 -7 74 -5 l73 3 21 -48 c20 -48 26 -123 9 -123 -4 0 -5 -6 -1 -13 4 -6 4
-9 -1 -5 -4 4 -14 3 -21 -3 -8 -7 -14 -6 -20 2 -4 7 -3 9 3 6 5 -3 10 -1 10 6
0 7 -8 13 -18 13 -9 0 -15 -6 -12 -13 3 -7 2 -21 -3 -31 -4 -9 -8 -26 -8 -37
-1 -14 -8 -20 -24 -19 -12 0 -22 -5 -22 -12 0 -8 -14 -13 -37 -12 -21 0 -45
-2 -53 -4 -8 -1 -15 4 -15 12 0 8 -7 21 -17 27 -15 12 -15 17 -2 60 15 49 16
123 3 123 -4 0 -10 -10 -12 -22 -2 -13 -2 -5 0 17 2 22 4 52 4 66 -1 19 6 29
26 38 16 7 29 9 31 3 1 -5 15 -7 29 -4 l27 5 -25 10 c-36 15 -48 16 -55 6 -3
-6 -16 -3 -31 7 -19 12 -27 13 -33 4 -5 -8 -9 -8 -13 3 -9 23 4 29 30 12 35
-23 28 -10 -9 16 -17 13 -28 18 -24 11 13 -21 -10 -13 -34 13 -12 13 -27 22
-32 19 -6 -4 1 -11 14 -18 17 -8 24 -21 26 -50 4 -44 -16 -71 -65 -92 -53 -23
-91 -18 -125 17 l-31 30 6 -35 c3 -20 2 -36 -2 -36 -4 0 -14 -11 -21 -25 -7
-13 -17 -22 -22 -19 -5 3 -12 -3 -15 -14 -6 -24 -44 -37 -55 -19 -5 7 -19 47
-33 90 -30 93 -34 237 -10 332 54 212 219 381 435 444 99 30 247 28 347 -4z
m-284 -445 c2 -10 16 -26 31 -35 20 -14 32 -15 56 -7 30 11 42 5 46 -26 2 -10
-1 -11 -12 -1 -9 8 -18 8 -26 2 -7 -6 -30 -13 -50 -17 -35 -6 -39 -4 -57 25
-11 18 -18 36 -15 41 3 4 1 8 -5 8 -7 0 -8 19 -2 37 3 9 30 -12 34 -27z m67
-110 c0 -5 -8 -10 -17 -10 -15 0 -16 2 -3 10 19 12 20 12 20 0z m642 -60 c-2
-16 -8 -30 -13 -30 -5 0 -6 7 -4 15 3 8 7 22 10 30 8 25 12 17 7 -15z m-605 0
c-3 -13 0 -20 10 -20 8 0 12 -4 8 -10 -3 -5 -12 -7 -19 -4 -15 6 -19 54 -4 54
6 0 8 -9 5 -20z m53 -26 c0 -8 -4 -12 -10 -9 -5 3 -10 10 -10 16 0 5 5 9 10 9
6 0 10 -7 10 -16z m-11 -30 c3 -4 -2 -4 -11 -1 -10 4 -18 2 -18 -4 0 -6 -4 -7
-10 -4 -5 3 -10 10 -10 15 0 10 39 5 49 -6z m571 6 c0 -5 -4 -10 -10 -10 -5 0
-10 5 -10 10 0 6 5 10 10 10 6 0 10 -4 10 -10z m-809 -77 c0 -5 2 -19 5 -33 4
-25 3 -25 -12 -5 -10 12 -15 14 -12 5 18 -54 31 -121 24 -127 -8 -8 -27 17
-20 28 2 4 -3 9 -11 13 -8 3 -15 12 -15 21 0 8 -5 15 -11 15 -11 0 -3 -37 13
-57 6 -7 13 -28 18 -46 6 -30 5 -34 -11 -30 -10 3 -18 8 -17 12 5 18 -14 49
-27 44 -11 -4 -12 -10 -5 -23 21 -38 12 -57 -35 -75 -45 -17 -95 -14 -95 5 0
6 11 10 25 10 14 0 25 5 25 10 0 6 -6 10 -14 10 -8 0 -18 9 -21 20 -7 23 54
104 108 142 18 12 40 33 50 45 18 23 36 30 38 16z m-129 -70 c2 1 -10 -12 -27
-29 -16 -17 -33 -29 -36 -27 -4 1 -9 -7 -12 -18 -4 -17 -9 -19 -24 -10 -18 9
-46 1 -44 -13 4 -25 -1 -36 -16 -36 -15 0 -14 -2 3 -15 10 -8 14 -15 8 -15
-12 0 -42 33 -62 68 -12 22 -7 26 33 24 6 -1 27 21 48 47 l38 49 44 -13 c24
-8 45 -13 47 -12z m168 -82 c0 -5 -6 -14 -14 -20 -12 -10 -13 -8 -9 8 5 21 23
30 23 12z m-252 -46 c-3 -3 -13 7 -23 22 l-17 28 23 -22 c12 -12 20 -25 17
-28z m112 -125 c14 -26 3 -45 -16 -29 -11 9 -14 8 -14 -5 0 -9 -4 -16 -10 -16
-5 0 -10 9 -10 20 0 13 -7 20 -20 20 -11 0 -20 5 -20 10 0 13 16 13 41 0 11
-6 19 -7 18 -3 -5 29 16 31 31 3z m35 -10 c3 -5 1 -10 -4 -10 -6 0 -11 5 -11
10 0 6 2 10 4 10 3 0 8 -4 11 -10z m461 -21 c27 -28 33 -30 77 -25 26 3 45 1
42 -4 -7 -11 -150 -70 -171 -70 -19 0 -54 28 -54 43 0 12 59 87 69 87 4 0 20
-14 37 -31z m-316 -33 c-1 -5 4 -13 12 -17 9 -6 9 -9 1 -9 -7 0 -17 10 -24 21
-8 16 -8 20 1 17 6 -2 11 -7 10 -12z m-95 -16 c3 -6 -1 -7 -9 -4 -18 7 -21 14
-7 14 6 0 13 -4 16 -10z"/>
<path d="M285 1109 c-4 -6 -5 -12 -2 -15 2 -3 7 2 10 11 7 17 1 20 -8 4z"/>
<path d="M343 1087 c-28 -8 -33 -15 -33 -40 0 -24 -3 -28 -12 -19 -7 7 -19 12
-27 12 -9 0 -6 -7 10 -21 13 -11 25 -16 27 -10 2 5 19 7 38 4 21 -4 34 -2 34
5 0 6 7 9 15 6 8 -4 15 -15 15 -26 0 -13 -5 -18 -14 -15 -8 3 -20 -1 -26 -9
-7 -8 -20 -14 -29 -15 -10 0 -12 -2 -3 -6 6 -2 10 -8 7 -13 -3 -4 4 -6 15 -3
11 3 20 1 20 -4 0 -21 -58 -62 -102 -73 -26 -7 -45 -16 -42 -21 3 -5 1 -9 -5
-9 -5 0 -13 5 -16 10 -3 6 -16 10 -28 9 -20 -1 -20 -2 3 -9 15 -5 18 -8 9 -9
-9 -1 -20 -9 -24 -18 -3 -10 -7 -20 -8 -22 -5 -10 49 -11 77 -1 17 5 54 12 83
15 45 4 52 3 58 -15 5 -16 10 -18 26 -10 22 12 24 25 6 60 -11 23 -10 27 16
49 15 13 27 31 25 40 -3 18 49 111 62 111 12 0 0 37 -16 51 -11 9 -26 5 -68
-16 -32 -16 -62 -25 -72 -21 -16 6 -16 8 2 20 26 19 16 25 -23 13z m167 -36
c0 -4 -3 -11 -7 -14 -8 -9 -34 13 -28 24 6 9 35 1 35 -10z m-90 -111 c0 11 3
11 12 2 6 -6 10 -13 7 -14 -2 -2 -22 -19 -43 -38 l-39 -35 22 32 c12 17 21 35
20 40 -3 20 2 27 11 13 8 -13 10 -13 10 0z"/>
<path d="M495 970 c-18 -20 -18 -21 1 -14 17 7 18 6 4 -12 -14 -19 -14 -19 8
0 23 20 30 32 10 20 -8 -5 -9 -2 -5 9 8 22 4 21 -18 -3z"/>
<path d="M485 700 c-8 -13 15 -24 27 -12 6 6 4 11 -6 15 -8 3 -18 2 -21 -3z"/>
<path d="M234 578 l-19 -23 23 19 c21 18 27 26 19 26 -2 0 -12 -10 -23 -22z"/>
<path d="M310 586 c0 -8 4 -17 9 -20 10 -7 23 19 14 28 -11 11 -23 6 -23 -8z"/>
<path d="M275 570 c-3 -5 1 -10 10 -10 9 0 13 5 10 10 -3 6 -8 10 -10 10 -2 0
-7 -4 -10 -10z"/>
<path d="M355 553 c16 -16 16 -18 -5 -35 -12 -10 -19 -18 -15 -18 4 0 20 11
35 24 20 16 25 27 19 37 -7 12 -9 12 -9 0 0 -12 -3 -12 -12 -3 -7 7 -16 12
-21 12 -5 0 -1 -8 8 -17z"/>
<path d="M300 540 c0 -5 7 -7 15 -4 8 4 15 8 15 10 0 2 -7 4 -15 4 -8 0 -15
-4 -15 -10z"/>
<path d="M310 260 c19 -13 30 -13 30 0 0 6 -10 10 -22 10 -19 0 -20 -2 -8 -10z"/>
</g>
</svg>
